<svg width="62" height="62" fill="none" xmlns="http://www.w3.org/2000/svg"><g filter="url(#filter0_d)"><path fill="#EEE" d="M0 0h58v58H0z"/><path stroke="#222" stroke-width="2" d="M1 1h56v56H1z"/></g><path clip-rule="evenodd" d="M21.5 25.25a2.25 2.25 0 100-4.5 2.25 2.25 0 000 4.5z" stroke="#000" stroke-width="1.5" stroke-linecap="round" stroke-linejoin="round"/><path d="M21.5 26.75a3.75 3.75 0 00-3.75 3.75v2.25h1.5l.75 6h3" stroke="#000" stroke-width="1.5" stroke-linecap="round" stroke-linejoin="round"/><path clip-rule="evenodd" d="M36.5 25.25a2.25 2.25 0 100-4.5 2.25 2.25 0 000 4.5z" stroke="#000" stroke-width="1.5" stroke-linecap="round" stroke-linejoin="round"/><path d="M36.5 26.75a3.75 3.75 0 013.75 3.75v2.25h-1.5l-.75 6h-3" stroke="#000" stroke-width="1.5" stroke-linecap="round" stroke-linejoin="round"/><path clip-rule="evenodd" d="M29 23.75a3 3 0 100-6 3 3 0 000 6zm5.25 6.75a5.25 5.25 0 10-10.5 0v2.25H26l.75 7.5h4.5l.75-7.5h2.25V30.5z" stroke="#000" stroke-width="1.5" stroke-linecap="round" stroke-linejoin="round"/><defs><filter id="filter0_d" x="0" y="0" width="62" height="62" filterUnits="userSpaceOnUse" color-interpolation-filters="sRGB"><feFlood flood-opacity="0" result="BackgroundImageFix"/><feColorMatrix in="SourceAlpha" values="0 0 0 0 0 0 0 0 0 0 0 0 0 0 0 0 0 0 127 0"/><feOffset dx="4" dy="4"/><feColorMatrix values="0 0 0 0 0.933333 0 0 0 0 0.933333 0 0 0 0 0.933333 0 0 0 1 0"/><feBlend in2="BackgroundImageFix" result="effect1_dropShadow"/><feBlend in="SourceGraphic" in2="effect1_dropShadow" result="shape"/></filter></defs></svg>