<svg width="62" height="62" fill="none" xmlns="http://www.w3.org/2000/svg"><g filter="url(#filter0_d)"><path fill="#EEE" d="M0 0h58v58H0z"/><path stroke="#222" stroke-width="2" d="M1 1h56v56H1z"/></g><path d="M26 30.187h-6.75a1.5 1.5 0 01-1.5-1.5v-9a1.5 1.5 0 011.5-1.5h12a1.5 1.5 0 011.5 1.5v6.75" stroke="#000" stroke-width="1.5" stroke-linecap="round" stroke-linejoin="round"/><path clip-rule="evenodd" d="M36.579 27.6l2.586 1.293a.75.75 0 001.085-.671V20.15a.75.75 0 00-1.085-.671l-2.586 1.293a1.5 1.5 0 00-.829 1.342v4.146a1.5 1.5 0 00.829 1.34zm.349 7.194l-6.042-3.626a.75.75 0 00-1.136.643v7.251a.75.75 0 001.136.643l6.042-3.625a.749.749 0 000-1.286z" stroke="#000" stroke-width="1.5" stroke-linecap="round" stroke-linejoin="round"/><defs><filter id="filter0_d" x="0" y="0" width="62" height="62" filterUnits="userSpaceOnUse" color-interpolation-filters="sRGB"><feFlood flood-opacity="0" result="BackgroundImageFix"/><feColorMatrix in="SourceAlpha" values="0 0 0 0 0 0 0 0 0 0 0 0 0 0 0 0 0 0 127 0"/><feOffset dx="4" dy="4"/><feColorMatrix values="0 0 0 0 0.933333 0 0 0 0 0.933333 0 0 0 0 0.933333 0 0 0 1 0"/><feBlend in2="BackgroundImageFix" result="effect1_dropShadow"/><feBlend in="SourceGraphic" in2="effect1_dropShadow" result="shape"/></filter></defs></svg>