<svg width="62" height="62" fill="none" xmlns="http://www.w3.org/2000/svg"><g filter="url(#filter0_d)"><path fill="#EEE" d="M0 0h58v58H0z"/><path stroke="#222" stroke-width="2" d="M1 1h56v56H1z"/></g><path d="M25.25 35l-3 2.25v-4.5h-3a1.5 1.5 0 01-1.5-1.5v-12a1.5 1.5 0 011.5-1.5h16.5a1.5 1.5 0 011.5 1.5v4.5M22.993 27.7c.946.5 1.958.862 3.007 1.074m-2.25-6.524v1.5m7.5-1.5v1.5" stroke="#000" stroke-width="1.5" stroke-linecap="round" stroke-linejoin="round"/><path clip-rule="evenodd" d="M40.25 35.75h-3v4.5l-4.5-4.5h-4.5v-9h12v9z" stroke="#000" stroke-width="1.5" stroke-linecap="round" stroke-linejoin="round"/><path d="M31.25 30.875a.375.375 0 100 .75.375.375 0 000-.75zm3 0a.375.375 0 100 .75.375.375 0 000-.75zm3 0a.375.375 0 100 .75.375.375 0 000-.75z" stroke="#000" stroke-width="1.5" stroke-linecap="round" stroke-linejoin="round"/><defs><filter id="filter0_d" x="0" y="0" width="62" height="62" filterUnits="userSpaceOnUse" color-interpolation-filters="sRGB"><feFlood flood-opacity="0" result="BackgroundImageFix"/><feColorMatrix in="SourceAlpha" values="0 0 0 0 0 0 0 0 0 0 0 0 0 0 0 0 0 0 127 0"/><feOffset dx="4" dy="4"/><feColorMatrix values="0 0 0 0 0.933333 0 0 0 0 0.933333 0 0 0 0 0.933333 0 0 0 1 0"/><feBlend in2="BackgroundImageFix" result="effect1_dropShadow"/><feBlend in="SourceGraphic" in2="effect1_dropShadow" result="shape"/></filter></defs></svg>