<svg width="62" height="62" fill="none" xmlns="http://www.w3.org/2000/svg"><g filter="url(#filter0_d)"><path fill="#EEE" d="M0 0h58v58H0z"/><path stroke="#222" stroke-width="2" d="M1 1h56v56H1z"/></g><path clip-rule="evenodd" d="M24.5 26a4.125 4.125 0 100-8.25 4.125 4.125 0 000 8.25z" stroke="#000" stroke-width="1.5" stroke-linecap="round" stroke-linejoin="round"/><path d="M29.21 29.425a6.743 6.743 0 00-11.46 4.825m21-1.5h-6a1.5 1.5 0 00-1.5 1.5v4.5a1.5 1.5 0 001.5 1.5h6a1.5 1.5 0 001.5-1.5v-4.5a1.5 1.5 0 00-1.5-1.5z" stroke="#000" stroke-width="1.5" stroke-linecap="round" stroke-linejoin="round"/><path clip-rule="evenodd" d="M35.75 28.25a3 3 0 00-3 3v1.5h6v-1.5a3 3 0 00-3-3z" stroke="#000" stroke-width="1.5" stroke-linecap="round" stroke-linejoin="round"/><path d="M35.75 36.154a.375.375 0 100 .75.375.375 0 000-.75z" stroke="#000" stroke-width="1.5" stroke-linecap="round" stroke-linejoin="round"/><defs><filter id="filter0_d" x="0" y="0" width="62" height="62" filterUnits="userSpaceOnUse" color-interpolation-filters="sRGB"><feFlood flood-opacity="0" result="BackgroundImageFix"/><feColorMatrix in="SourceAlpha" values="0 0 0 0 0 0 0 0 0 0 0 0 0 0 0 0 0 0 127 0"/><feOffset dx="4" dy="4"/><feColorMatrix values="0 0 0 0 0.933333 0 0 0 0 0.933333 0 0 0 0 0.933333 0 0 0 1 0"/><feBlend in2="BackgroundImageFix" result="effect1_dropShadow"/><feBlend in="SourceGraphic" in2="effect1_dropShadow" result="shape"/></filter></defs></svg>