<svg width="24" height="24" fill="none" xmlns="http://www.w3.org/2000/svg"><path d="M12 0C8.87 0 8.48.015 7.25.072 6.025.132 5.19.333 4.455.63c-.757.306-1.4.717-2.04 1.384a5.886 5.886 0 00-1.33 2.126C.8 4.905.607 5.775.55 7.053.491 8.333.48 8.74.48 12s.014 3.667.07 4.947c.057 1.277.25 2.148.535 2.913a5.916 5.916 0 001.328 2.126 5.616 5.616 0 002.041 1.384c.736.296 1.57.499 2.797.558C8.48 23.988 8.87 24 12 24s3.52-.015 4.75-.072c1.225-.06 2.061-.262 2.796-.558a5.644 5.644 0 002.04-1.384 5.89 5.89 0 001.33-2.126c.283-.765.478-1.636.535-2.913.058-1.28.069-1.687.069-4.947s-.014-3.667-.07-4.947c-.057-1.277-.25-2.149-.535-2.913a5.92 5.92 0 00-1.328-2.126A5.595 5.595 0 0019.546.63C18.81.333 17.975.131 16.749.072 15.52.012 15.13 0 12 0zm0 2.16c3.075 0 3.442.016 4.656.071 1.123.055 1.733.249 2.138.415.54.217.921.477 1.327.896.402.42.652.819.86 1.381.157.422.345 1.057.396 2.227.055 1.266.068 1.646.068 4.85 0 3.204-.015 3.585-.072 4.85-.058 1.17-.245 1.805-.404 2.227a3.83 3.83 0 01-.863 1.382 3.582 3.582 0 01-1.325.896c-.403.164-1.022.36-2.145.413-1.223.057-1.583.07-4.665.07s-3.442-.015-4.664-.074c-1.125-.061-1.744-.256-2.147-.421a3.558 3.558 0 01-1.324-.899 3.661 3.661 0 01-.864-1.38c-.158-.42-.345-1.065-.403-2.235-.043-1.26-.059-1.649-.059-4.844 0-3.196.016-3.586.059-4.861.058-1.17.245-1.814.403-2.234.202-.57.46-.96.864-1.381.402-.419.778-.689 1.324-.898.403-.166 1.009-.361 2.132-.421 1.224-.045 1.584-.06 4.665-.06l.043.03zm0 3.678c-3.269 0-5.916 2.76-5.916 6.162 0 3.405 2.65 6.162 5.916 6.162 3.269 0 5.916-2.76 5.916-6.162 0-3.405-2.65-6.162-5.916-6.162zM12 16c-2.122 0-3.84-1.79-3.84-4S9.878 8 12 8s3.84 1.79 3.84 4-1.718 4-3.84 4zm7.532-10.405c0 .795-.62 1.44-1.382 1.44-.763 0-1.383-.646-1.383-1.44 0-.794.62-1.439 1.383-1.439.761-.001 1.382.645 1.382 1.439z"/></svg>