<svg width="24" height="20" fill="none" xmlns="http://www.w3.org/2000/svg"><path d="M23.476 2.57a9.303 9.303 0 01-2.712.774A4.927 4.927 0 0022.84.621a9.521 9.521 0 01-3.002 1.184A4.619 4.619 0 0016.391.246c-2.608 0-4.723 2.203-4.723 4.917 0 .39.043.765.122 1.124-3.927-.193-7.407-2.157-9.736-5.126a4.976 4.976 0 00-.639 2.475c0 1.71.835 3.213 2.1 4.096a4.566 4.566 0 01-2.138-.616v.061c0 2.385 1.625 4.374 3.788 4.827a4.616 4.616 0 01-2.124.085c.606 1.953 2.347 3.377 4.42 3.417A9.236 9.236 0 01.48 17.544c2.101 1.394 4.577 2.21 7.255 2.21 8.692 0 13.439-7.497 13.439-13.987 0-.209 0-.42-.015-.63a9.767 9.767 0 002.362-2.548l-.045-.02z"/></svg>