<svg version="1.0" xmlns="http://www.w3.org/2000/svg" width="126.667" height="126.667" viewBox="0 0 95 95"><path d="M41.3 7c-1.2.5-5.5 5.1-9.6 10.2C21.1 30.6 20.4 32.4 24 36c1.8 1.8 3.2 2 15.9 1.7 16.3-.2 17.5.2 14.5 5.9l-1.9 3.6 2.3 1.5c2.5 1.8 2.9 5.1.7 5.9-2 .8-1.9 4.1.1 6.1 1.4 1.4 1.3 1.8-1.2 4.4-2.5 2.6-2.6 3.1-1.4 4.4.8.8 6 2.4 11.4 3.7 6 1.4 10.1 2.9 10.4 3.7 1 2.9-32.9-.8-44.6-4.9C22.3 69.3 17 63.6 17 58c0-4.7 1.1-7.3 4.9-11.3 2.5-2.8 2.6-2.9.7-4.3-1.7-1.2-2.3-1.2-4 0-3 2-7.6 11.3-7.6 15.4 0 5.2 3.7 11.9 8.3 15.3 8.8 6.4 33.2 10.8 55 10 3.4-.1 6.7-3.3 6.7-6.5 0-3.1-3.8-6.2-8.7-7-2.1-.4-5.5-1.2-7.5-1.7-3.3-.8-3.6-1.2-2.9-3.2.5-1.2.4-3.3-.1-4.6-.5-1.6-.5-2.8.2-3.5 1.5-1.5 1.2-6.8-.5-9.3-1-1.4-1.2-2.4-.5-2.8 2-1.2 1.1-6.5-1.5-8.9-3.3-3-6.4-3.6-19.6-3.6-7 0-10.9-.4-10.9-1.1 0-1.2 10.9-15.8 13.4-17.8.9-.8 1.9-1.1 2.2-.8.8.8-1.4 7.5-3.7 11.3-1.4 2.3-1.6 3.3-.7 4.2 2.3 2.3 3.9 1.1 6.8-5.1 3.5-7.3 3.8-11.9 1-14.7-2.2-2.2-3.3-2.3-6.7-1z"/></svg>